<svg width="240" height="89" viewBox="0 0 240 89" fill="none" xmlns="http://www.w3.org/2000/svg">
<g clip-path="url(#clip0_105_18)">
<path d="M46.1315 67.4744L44.9431 77.3148C44.872 77.9031 44.5886 78.4448 44.1463 78.8378C43.7041 79.2308 43.1336 79.4478 42.5428 79.4477H10.364C9.85308 79.4477 9.35532 79.2853 8.94213 78.9839C8.52895 78.6825 8.22159 78.2576 8.06416 77.7702L7.27539 75.3281H33.5784C34.1335 75.328 34.6718 75.1364 35.1027 74.7854C35.5336 74.4344 35.8309 73.9454 35.9447 73.4004L37.3855 66.4999L37.7489 64.7572H43.7327C44.0749 64.7567 44.4132 64.8291 44.7254 64.9697C45.0375 65.1103 45.3162 65.3159 45.5431 65.5728C45.7699 65.8297 45.9397 66.132 46.0412 66.4597C46.1426 66.7874 46.1734 67.133 46.1315 67.4736V67.4744Z" fill="#660066"/>
<path d="M37.3845 66.4999L35.943 73.4004C35.8292 73.9453 35.5319 74.4343 35.101 74.7854C34.6701 75.1364 34.1318 75.328 33.5767 75.328H7.27443L0.117303 53.1687C-0.0393892 52.6828 -0.0390935 52.1596 0.118148 51.6739C0.27539 51.1881 0.581548 50.7646 0.992962 50.4637L4.2848 48.0564L9.78128 64.8337C9.94037 65.3187 10.2481 65.7409 10.6605 66.0402C11.0729 66.3396 11.569 66.5007 12.0781 66.5006L37.3845 66.4999Z" fill="#700070"/>
<path d="M46.0543 66.5H12.0804C11.5713 66.5 11.0752 66.3389 10.6628 66.0396C10.2504 65.7403 9.94268 65.318 9.78359 64.833L4.28711 48.0558L6.79169 46.2244L12.3169 63.0895C12.476 63.5746 12.7838 63.997 13.1964 64.2963C13.6089 64.5956 14.1052 64.7567 14.6144 64.7565H43.7341C44.2568 64.7565 44.7654 64.9264 45.1837 65.2407C45.602 65.5551 45.9074 65.9969 46.0543 66.5Z" fill="#FFCC00"/>
<path d="M19.5394 64.7579H14.6095C14.1005 64.758 13.6044 64.5968 13.1919 64.2975C12.7795 63.9982 12.4718 63.5759 12.3127 63.091L6.78906 46.2243L9.49386 44.2466C9.73804 44.0665 10.0142 43.9346 10.3076 43.8579C10.9031 43.7023 11.5354 43.7802 12.0756 44.0759C12.6157 44.3715 13.0232 44.8626 13.2148 45.4491L19.5394 64.7579Z" fill="#FFAC00"/>
<path d="M19.5385 64.7579H18.9031C18.394 64.758 17.8979 64.5968 17.4854 64.2975C17.073 63.9982 16.7653 63.5759 16.6062 63.091L10.3066 43.8579C10.9021 43.7023 11.5344 43.7802 12.0746 44.0759C12.6148 44.3715 13.0223 44.8626 13.2139 45.4491L19.5385 64.7579Z" fill="#FF7900"/>
<path d="M4.28348 48.0526L4.2832 48.0519" stroke="black" stroke-miterlimit="10"/>
<path d="M37.3845 66.4999L35.943 73.4004C35.8292 73.9453 35.5319 74.4343 35.101 74.7854C34.6701 75.1364 34.1318 75.328 33.5767 75.328H7.27443L0.117303 53.1687C-0.0393892 52.6828 -0.0390935 52.1596 0.118148 51.6739C0.27539 51.1881 0.581548 50.7646 0.992962 50.4637L4.2848 48.0564L9.78128 64.8337C9.94037 65.3187 10.2481 65.7409 10.6605 66.0402C11.0729 66.3396 11.569 66.5007 12.0781 66.5006L37.3845 66.4999Z" fill="#700070"/>
<path d="M46.0543 66.5H12.0804C11.5713 66.5 11.0752 66.3389 10.6628 66.0396C10.2504 65.7403 9.94268 65.318 9.78359 64.833L4.28711 48.0558L6.79169 46.2244L12.3169 63.0895C12.476 63.5746 12.7838 63.997 13.1964 64.2963C13.6089 64.5956 14.1052 64.7567 14.6144 64.7565H43.7341C44.2568 64.7565 44.7654 64.9264 45.1837 65.2407C45.602 65.5551 45.9074 65.9969 46.0543 66.5Z" fill="#FFCC00"/>
<path d="M19.5394 64.7579H14.6095C14.1005 64.758 13.6044 64.5968 13.1919 64.2975C12.7795 63.9982 12.4718 63.5759 12.3127 63.091L6.78906 46.2243L9.49386 44.2466C9.73804 44.0665 10.0142 43.9346 10.3076 43.8579C10.9031 43.7023 11.5354 43.7802 12.0756 44.0759C12.6157 44.3715 13.0232 44.8626 13.2148 45.4491L19.5394 64.7579Z" fill="#FFAC00"/>
<path d="M19.5385 64.7579H18.9031C18.394 64.758 17.8979 64.5968 17.4854 64.2975C17.073 63.9982 16.7653 63.5759 16.6062 63.091L10.3066 43.8579C10.9021 43.7023 11.5344 43.7802 12.0746 44.0759C12.6148 44.3715 13.0223 44.8626 13.2139 45.4491L19.5385 64.7579Z" fill="#FF7900"/>
<path d="M4.28348 48.0526L4.2832 48.0519" stroke="black" stroke-miterlimit="10"/>
<path d="M23.7147 56.5049C23.4412 56.6904 23.1326 56.8175 22.8081 56.8785L13.0988 58.7281C12.5217 58.8382 11.9245 58.734 11.4185 58.4347C10.9125 58.1355 10.5325 57.6617 10.3494 57.102L0.292544 26.3896C0.133074 25.9026 0.13163 25.3774 0.288417 24.8895C0.445204 24.4015 0.752155 23.976 1.16518 23.674L3.20511 22.1805L11.4872 47.4609C11.6689 48.0155 12.044 48.4858 12.5437 48.7854C13.0433 49.0849 13.634 49.1936 14.2071 49.0915L20.8943 47.8981L22.632 47.5882L24.6501 53.7378C24.8153 54.2383 24.8135 54.7792 24.6447 55.2785C24.4759 55.7778 24.1494 56.2084 23.7147 56.5049Z" fill="#660066"/>
<path d="M13.0886 24.0658L20.8947 47.8981L14.2075 49.0907C13.6344 49.1929 13.0437 49.0842 12.5441 48.7846C12.0444 48.4851 11.6693 48.0148 11.4876 47.4601L3.20703 22.1806L21.9502 8.47734C22.3634 8.17599 22.8612 8.01367 23.3721 8.01367C23.883 8.01367 24.3808 8.17599 24.794 8.47734L28.1939 10.9505L13.962 21.3501C13.5488 21.652 13.2417 22.0775 13.0848 22.5655C12.9279 23.0534 12.9292 23.5786 13.0886 24.0658Z" fill="#700070"/>
<path d="M24.6522 53.7378C24.8171 54.2388 24.8147 54.7799 24.6452 55.2793C24.4757 55.7787 24.1485 56.209 23.7131 56.505L20.8934 47.8982L13.0873 24.0658C12.9279 23.5787 12.9266 23.0534 13.0835 22.5655C13.2405 22.0776 13.5476 21.6521 13.9607 21.3502L28.1911 10.9468L30.698 12.7706L16.4026 23.2217C15.9896 23.5237 15.6826 23.9493 15.5258 24.4372C15.369 24.9251 15.3705 25.4503 15.5299 25.9374L16.3165 28.3469L17.0591 30.6162L22.6312 47.589L24.6522 53.7378Z" fill="#FFCC00"/>
<path d="M33.4249 18.6557L17.0662 30.6162L16.8713 30.0229L15.5347 25.9373C15.3753 25.4502 15.3738 24.925 15.5306 24.4371C15.6874 23.9492 15.9943 23.5237 16.4074 23.2216L30.702 12.7705L33.4106 14.7406C33.7183 14.9645 33.9691 15.2582 34.1424 15.5976C34.3158 15.9371 34.4069 16.3127 34.4083 16.6941C34.4097 17.0754 34.3214 17.4518 34.1505 17.7925C33.9796 18.1332 33.731 18.4287 33.4249 18.6549V18.6557Z" fill="#FFAC00"/>
<path d="M33.4261 18.6556L17.0674 30.6161L16.8725 30.0229C16.7131 29.5357 16.7118 29.0105 16.8687 28.5225C17.0256 28.0346 17.3327 27.6091 17.7459 27.3072L34.0321 15.4005C34.3614 15.919 34.4819 16.5437 34.3695 17.148C34.257 17.7523 33.9198 18.2912 33.4261 18.6556Z" fill="#FF7900"/>
<path d="M71.9203 18.298L70.6359 22.3298L56.5075 11.9886C56.0939 11.6862 55.5952 11.5232 55.0833 11.5232C54.5715 11.5232 54.0728 11.6862 53.6591 11.9886L52.5848 12.7743L49.1177 15.3058L33.5983 26.6435L30.4515 20.5651C30.1852 20.0505 30.1116 19.4572 30.2439 18.8929C30.3763 18.3285 30.7059 17.8304 31.1731 17.4888L52.4171 1.95569L71.0439 15.6021C71.4536 15.9024 71.7587 16.3243 71.916 16.8082C72.0733 17.292 72.0748 17.8133 71.9203 18.298Z" fill="#700070"/>
<path d="M33.5975 26.6435L34.4059 28.2052L28.2559 32.7007C28.0789 32.8294 27.8766 32.9189 27.6624 32.9632C27.4482 33.0075 27.2271 33.0056 27.0137 32.9576C26.8003 32.9096 26.5995 32.8165 26.4247 32.6847C26.25 32.5529 26.1051 32.3853 25.9999 32.193L20.7868 22.6617C20.504 22.1454 20.4184 21.5434 20.5459 20.9684C20.6734 20.3933 21.0053 19.8845 21.4796 19.5369L47.5302 0.466066C47.9442 0.162971 48.4434 -0.000366211 48.9559 -0.000366211C49.4684 -0.000366211 49.9677 0.162971 50.3816 0.466066L52.4163 1.95649L31.1723 17.4896C30.7051 17.8312 30.3755 18.3293 30.2431 18.8937C30.1108 19.4581 30.1844 20.0513 30.4507 20.5659L33.5975 26.6435Z" fill="#660066"/>
<path d="M70.6359 22.3298L69.7149 25.3258L55.4694 14.8906C55.0556 14.5878 54.5567 14.4247 54.0445 14.4247C53.5323 14.4247 53.0333 14.5878 52.6196 14.8906L50.5796 16.3795L48.6561 17.7858L34.406 28.2051L28.256 32.7006C28.079 32.8294 27.8766 32.9189 27.6624 32.9632C27.4483 33.0075 27.2271 33.0055 27.0137 32.9575C26.8003 32.9095 26.5996 32.8165 26.4248 32.6847C26.25 32.5528 26.1052 32.3852 26 32.1929L33.5976 26.6435L53.6562 11.9878C54.0698 11.6854 54.5684 11.5225 55.0803 11.5225C55.5922 11.5225 56.0909 11.6854 56.5045 11.9878L70.6359 22.3298Z" fill="#FFCC00"/>
<path d="M69.7153 25.3259L68.7036 28.512C68.5872 28.8781 68.3858 29.2112 68.1159 29.4838C67.846 29.7565 67.5154 29.9609 67.1513 30.0802C66.7871 30.1996 66.3999 30.2305 66.0216 30.1703C65.6432 30.1102 65.2845 29.9607 64.9751 29.7342L48.6602 17.7843L49.1581 17.4206L52.6199 14.8891C53.0337 14.5862 53.5328 14.423 54.0452 14.423C54.5575 14.423 55.0567 14.5862 55.4705 14.8891L69.7153 25.3259Z" fill="#FFAC00"/>
<path d="M68.2601 29.3235C67.8669 29.7981 67.308 30.1045 66.6973 30.1803C66.0867 30.256 65.4702 30.0954 64.9735 29.7312L48.6602 17.7843L49.1581 17.4206C49.5719 17.1177 50.071 16.9545 50.5834 16.9545C51.0957 16.9545 51.5948 17.1177 52.0087 17.4206L68.2601 29.3235Z" fill="#FF7900"/>
<path d="M60.5086 18.5829C60.0316 18.2341 59.4438 18.0723 58.8561 18.1281C58.2683 18.184 57.7212 18.4535 57.318 18.886L49.9138 26.8178C49.7635 26.9788 49.6489 27.1699 49.5777 27.3786C49.5065 27.5874 49.4804 27.8089 49.5009 28.0285C49.5215 28.2481 49.5884 28.4608 49.6971 28.6526C49.8057 28.8444 49.9538 29.0108 50.1314 29.1409L56.1258 33.5356C56.1276 33.5372 56.1299 33.538 56.1322 33.538C56.1346 33.538 56.1369 33.5372 56.1387 33.5356L57.3596 32.2771L62.0892 27.3974C62.495 26.9774 63.0385 26.7186 63.6196 26.6687C64.2006 26.6189 64.7801 26.7813 65.2511 27.1262L86.6719 42.8184C86.6731 42.8193 86.6746 42.8199 86.6762 42.8201C86.6777 42.8203 86.6793 42.8202 86.6808 42.8196C86.6823 42.8191 86.6836 42.8183 86.6847 42.8171C86.6858 42.816 86.6865 42.8146 86.687 42.8131L87.4576 40.3732C87.6105 39.8891 87.6079 39.369 87.4503 38.8864C87.2926 38.4037 86.9878 37.983 86.5789 37.6834L60.5086 18.5829Z" fill="#660066"/>
<path d="M86.6819 42.8237L79.7431 64.8049C79.5881 65.2958 79.2813 65.7245 78.8672 66.0288C78.453 66.3332 77.953 66.4974 77.4395 66.4977H73.1821L78.4973 49.8113C78.6517 49.3265 78.6501 48.8052 78.4927 48.3213C78.3352 47.8375 78.03 47.4155 77.6201 47.1154L57.3613 32.271L62.0909 27.3913C62.4974 26.9728 63.0408 26.7155 63.6214 26.6668C64.2019 26.6181 64.7804 26.7812 65.2506 27.1261L86.6819 42.8237Z" fill="#700070"/>
<path d="M78.4994 49.8112L73.1843 66.4976H70.0912L75.4335 49.7241C75.5879 49.2393 75.5863 48.718 75.4289 48.2341C75.2715 47.7503 74.9662 47.3283 74.5563 47.0282L72.4915 45.5127L70.5618 44.0996L50.1353 29.1386C49.9577 29.0085 49.8096 28.8421 49.701 28.6503C49.5923 28.4585 49.5254 28.2458 49.5049 28.0261C49.4843 27.8065 49.5105 27.585 49.5816 27.3763C49.6528 27.1676 49.7674 26.9764 49.9177 26.8154L77.6215 47.1153C78.0315 47.4154 78.3369 47.8373 78.4945 48.3211C78.6521 48.805 78.6538 49.3263 78.4994 49.8112Z" fill="#FFCC00"/>
<path d="M75.4329 49.7241L70.0905 66.4976H66.7375C66.3575 66.4986 65.9827 66.4095 65.6435 66.2377C65.3043 66.0659 65.0104 65.8161 64.7857 65.5088C64.5609 65.2016 64.4117 64.8454 64.3502 64.4693C64.2887 64.0933 64.3166 63.708 64.4316 63.3448L70.5612 44.0989L71.0833 44.4777L71.1007 44.4914L74.5557 47.0214C74.9669 47.322 75.2731 47.7451 75.4306 48.2303C75.5881 48.7156 75.5889 49.2384 75.4329 49.7241Z" fill="#FFAC00"/>
<path d="M71.9594 47.1813L65.8585 66.334C65.2866 66.1105 64.8208 65.6774 64.5557 65.1223C64.2905 64.5672 64.2458 63.9317 64.4305 63.3448L70.5601 44.0989L71.0822 44.4777L71.0996 44.4914C71.5051 44.7934 71.8061 45.2153 71.9604 45.6978C72.1146 46.1802 72.1142 46.699 71.9594 47.1813Z" fill="#FF7900"/>
<path d="M67.0515 62.5924L58.9401 88.0576H35.7877C35.2812 88.0578 34.7875 87.8984 34.3762 87.602C33.965 87.3057 33.6568 86.8872 33.4954 86.4058L32.1445 82.3748L49.7091 82.4505C50.2234 82.4528 50.7251 82.2904 51.1412 81.9871C51.5572 81.6838 51.866 81.2553 52.0225 80.7639L59.6413 56.8467L65.7535 59.6502C66.2911 59.8967 66.72 60.3322 66.9592 60.8743C67.1984 61.4164 67.2312 62.0277 67.0515 62.5924Z" fill="#700070"/>
<path d="M62.4368 48.0762C62.2395 47.9824 62.0245 47.932 61.8062 47.9283C61.5879 47.9246 61.3713 47.9678 61.171 48.0549C60.9707 48.142 60.7912 48.271 60.6447 48.4334C60.4981 48.5957 60.3879 48.7875 60.3213 48.9961L58.0547 56.1186L59.6466 56.8482L65.7588 59.6518C66.2966 59.8983 66.7256 60.3339 66.9648 60.8762C67.204 61.4185 67.2367 62.0299 67.0568 62.5947L58.9417 88.0577H61.4583C61.9711 88.0577 62.4707 87.8943 62.8848 87.591C63.2988 87.2877 63.606 86.8601 63.762 86.3702L73.5355 55.6829C73.7135 55.1239 73.6834 54.5191 73.4507 53.9808C73.218 53.4424 72.7985 53.0069 72.27 52.7551L62.4368 48.0762Z" fill="#660066"/>
<path d="M62.433 48.0762L52.0203 80.7654C51.8637 81.2568 51.555 81.6853 51.1389 81.9886C50.7229 82.292 50.2212 82.4543 49.7068 82.4521L32.1423 82.3763L31.1465 79.4053L44.6856 79.4212H48.8591C49.3719 79.4213 49.8714 79.2579 50.2855 78.9546C50.6996 78.6512 51.0068 78.2237 51.1627 77.7338L52.6511 73.0618L60.3152 48.9961C60.3818 48.7875 60.4921 48.5957 60.6386 48.4334C60.7852 48.271 60.9646 48.142 61.1649 48.0549C61.3652 47.9678 61.5818 47.9246 61.8001 47.9283C62.0184 47.932 62.2334 47.9824 62.4307 48.0762H62.433Z" fill="#FFCC00"/>
<path d="M45.4562 73.0587L44.9416 77.3148C44.8781 77.8404 44.6447 78.3307 44.2772 78.7108C43.9096 79.0909 43.4281 79.3398 42.9062 79.4197H48.8613C49.3739 79.4197 49.8732 79.2563 50.2871 78.9531C50.701 78.6499 51.0082 78.2227 51.1642 77.733L52.6526 73.0602L45.4562 73.0587Z" fill="#FFAC00"/>
<path d="M52.654 73.0602L52.4749 73.6202C52.319 74.11 52.0119 74.5374 51.598 74.8407C51.1841 75.144 50.6847 75.3075 50.172 75.3076H45.1855L45.4575 73.0587L52.654 73.0602Z" fill="#FF7900"/>
<path d="M41.6603 61.1111C49.8583 61.1111 56.5042 54.446 56.5042 46.2243C56.5042 38.0026 49.8583 31.3375 41.6603 31.3375C33.4622 31.3375 26.8164 38.0026 26.8164 46.2243C26.8164 54.446 33.4622 61.1111 41.6603 61.1111Z" fill="#FFCC00"/>
<path d="M41.6601 57.6869C47.9725 57.6869 53.0898 52.5549 53.0898 46.2243C53.0898 39.8936 47.9725 34.7616 41.6601 34.7616C35.3477 34.7616 30.2305 39.8936 30.2305 46.2243C30.2305 52.5549 35.3477 57.6869 41.6601 57.6869Z" fill="#FF9919"/>
<path d="M41.6604 50.1402C43.8169 50.1402 45.565 48.387 45.565 46.2243C45.565 44.0617 43.8169 42.3085 41.6604 42.3085C39.504 42.3085 37.7559 44.0617 37.7559 46.2243C37.7559 48.387 39.504 50.1402 41.6604 50.1402Z" fill="#FF7900"/>
<path d="M120.576 0.5448V1.28812C119.929 1.326 119.496 1.5028 119.278 1.81851C119.061 2.13423 118.952 2.85178 118.951 3.97118V13.8033C118.951 15.297 119.052 16.4502 119.253 17.263C119.618 18.7754 120.318 19.5316 121.352 19.5316C122.637 19.5316 123.505 18.695 123.957 17.022C124.208 16.1037 124.334 14.8173 124.334 13.163V4.18409C124.334 3.1339 124.224 2.41029 124.003 2.01325C123.783 1.61621 123.351 1.37449 122.708 1.28812V0.5448H126.382V1.28812C125.848 1.46997 125.496 1.69223 125.324 1.9549C125.152 2.21758 125.066 2.82173 125.066 3.76735V13.1546C125.066 15.6485 124.724 17.5736 124.038 18.9299C123.353 20.2862 122.276 20.9644 120.809 20.9644C118.887 20.9644 117.572 19.9559 116.865 17.9388C116.49 16.8685 116.302 15.4866 116.302 13.7934V3.96966C116.302 2.86744 116.218 2.17363 116.052 1.88822C115.886 1.60282 115.511 1.40278 114.926 1.28812V0.5448H120.576Z" fill="black"/>
<path d="M127.004 19.6323C127.624 19.6035 128.024 19.3957 128.204 19.0087C128.383 18.6218 128.473 18.051 128.473 17.2963V3.39607C127.961 2.39488 127.645 1.80513 127.524 1.62681C127.412 1.45428 127.236 1.33316 127.035 1.28963V0.5448H130.578L136.327 12.8053H136.409V4.18409C136.409 3.19098 136.306 2.48177 136.1 2.05644C135.894 1.63111 135.482 1.375 134.865 1.28812V0.5448H138.458V1.28812C137.936 1.43966 137.586 1.64399 137.409 1.90111C137.232 2.15822 137.144 2.73257 137.144 3.62414V20.922H136.678L129.321 5.22822H129.207V16.7371C129.207 17.6403 129.278 18.2788 129.419 18.6526C129.642 19.2588 130.099 19.5854 130.791 19.6323V20.3772H127.004V19.6323Z" fill="black"/>
<path d="M139.078 19.6323C139.552 19.6126 139.892 19.5116 140.099 19.3293C140.436 19.0262 140.605 18.4387 140.605 17.5668V3.35288C140.605 2.4901 140.444 1.91146 140.123 1.61696C139.927 1.43663 139.579 1.32752 139.078 1.28963V0.5448H144.924V1.28812C144.402 1.326 144.042 1.43031 143.846 1.60105C143.52 1.89504 143.357 2.47848 143.357 3.35137V17.5683C143.357 18.3902 143.487 18.9395 143.749 19.2164C144.01 19.4932 144.402 19.6318 144.924 19.6323V20.3772H139.078V19.6323Z" fill="black"/>
<path d="M151.195 0.5448V1.26084C150.595 1.31842 150.208 1.40708 150.031 1.5268C149.855 1.64651 149.767 1.94581 149.766 2.42468C149.765 2.56613 149.772 2.70751 149.786 2.84825C149.802 2.99105 149.827 3.13259 149.862 3.27181L152.513 14.1291H152.487L154.678 4.19091C154.728 3.97042 154.771 3.74538 154.809 3.51579C154.867 3.21744 154.9 2.91484 154.907 2.61108C154.907 2.05543 154.813 1.70839 154.626 1.56998C154.438 1.43158 154.055 1.32853 153.478 1.26084V0.5448H157.038V1.26084C156.849 1.2905 156.668 1.36179 156.509 1.46959C156.351 1.5774 156.218 1.71906 156.12 1.88444C155.915 2.22389 155.718 2.81844 155.528 3.66809L151.715 20.922H151.273L146.967 3.34303C146.793 2.63583 146.614 2.1269 146.432 1.81624C146.343 1.66372 146.219 1.53435 146.07 1.43855C145.922 1.34274 145.754 1.28317 145.578 1.26463V0.5448H151.195Z" fill="black"/>
<path d="M157.664 20.3772V19.6323C158.143 19.6035 158.483 19.4889 158.685 19.2883C158.995 18.9822 159.15 18.4089 159.15 17.5683V3.35288C159.15 2.4997 158.99 1.92586 158.668 1.63136C158.483 1.45304 158.149 1.33863 157.664 1.28812V0.5448H167.299V6.46253H166.891C166.679 4.57128 166.318 3.27585 165.809 2.57623C165.299 1.87661 164.373 1.52806 163.028 1.53058C162.517 1.53058 162.192 1.62353 162.053 1.80942C161.914 1.99531 161.844 2.36558 161.844 2.92023V9.71236C162.797 9.73206 163.442 9.42898 163.78 8.80311C164.118 8.17724 164.376 7.0341 164.554 5.3737H164.979V15.2899H164.554C164.435 13.6184 164.192 12.4409 163.824 11.7574C163.456 11.074 162.796 10.7325 161.844 10.733V17.8411C161.844 18.4614 161.935 18.884 162.117 19.1088C162.299 19.3335 162.674 19.4459 163.24 19.4459C164.307 19.4459 165.178 19.0827 165.853 18.3563C166.529 17.63 167.127 16.2686 167.649 14.2723H168.115L167.435 20.3772H157.664Z" fill="black"/>
<path d="M168.817 19.6323C169.383 19.5849 169.769 19.3985 169.976 19.0731C170.182 18.7478 170.286 18.0406 170.286 16.9515V3.96966C170.286 2.83865 170.164 2.10215 169.919 1.76017C169.756 1.53185 169.388 1.375 168.817 1.28963V0.5448H174.198C175.314 0.5448 176.217 0.75014 176.908 1.16082C178.247 1.99178 178.917 3.48674 178.917 5.64572C178.917 7.24146 178.567 8.49775 177.865 9.41458C177.329 10.1026 176.762 10.5421 176.163 10.733L179.714 19.0875C179.807 19.3149 179.905 19.4664 180.008 19.5422C180.124 19.6178 180.255 19.6643 180.392 19.6778V20.3802H176.903L173.002 11.2119H172.995V16.9584C172.995 17.9904 173.093 18.6854 173.289 19.0436C173.485 19.4017 173.877 19.6 174.465 19.6384V20.3832H168.814L168.817 19.6323ZM175.345 9.45095C175.815 8.93975 176.051 7.75746 176.051 5.9041C176.051 4.76753 175.961 3.86939 175.782 3.20967C175.472 2.0923 174.906 1.53361 174.084 1.53361C173.637 1.53361 173.345 1.63136 173.206 1.82685C173.067 2.02234 172.997 2.34487 172.997 2.79445V10.2602C174.091 10.2314 174.874 9.96165 175.345 9.45095Z" fill="black"/>
<path d="M181.211 13.5274H181.693C181.959 15.7203 182.389 17.3145 182.983 18.3101C183.576 19.3058 184.256 19.8038 185.023 19.8043C185.768 19.8043 186.296 19.4624 186.609 18.7784C186.921 18.1022 187.082 17.3656 187.08 16.6204C187.08 15.741 186.916 15.0239 186.588 14.4693C186.371 14.1061 185.932 13.6328 185.27 13.0493L184.204 12.1029C183.147 11.1664 182.401 10.239 181.967 9.32062C181.534 8.40227 181.316 7.26949 181.315 5.92228C181.305 4.53622 181.6 3.16494 182.179 1.9064C182.753 0.663756 183.635 0.0424319 184.823 0.0424319C185.442 0.0454814 186.049 0.213919 186.581 0.530399C187.146 0.855205 187.468 1.01761 187.548 1.01761C187.634 1.02058 187.717 0.994573 187.786 0.943813C187.854 0.893052 187.904 0.820523 187.926 0.738012C188.008 0.49863 188.064 0.251258 188.095 0L188.592 0V6.39131H188.126C187.908 4.91073 187.524 3.63525 186.973 2.56486C186.422 1.49446 185.752 0.959517 184.965 0.960022C184.411 0.960022 183.973 1.23027 183.652 1.77077C183.331 2.31128 183.17 2.96796 183.169 3.74083C183.169 4.66827 183.32 5.36132 183.623 5.81999C183.919 6.28876 184.582 6.97727 185.613 7.88551L186.848 8.97511C187.376 9.43539 187.821 9.98307 188.165 10.5943C188.776 11.7021 189.082 13.0483 189.082 14.6329C189.089 16.0875 188.752 17.523 188.1 18.8223C187.445 20.1357 186.394 20.7924 184.947 20.7924C184.605 20.7909 184.264 20.7354 183.939 20.628C183.58 20.5086 183.24 20.3373 182.931 20.1195L182.609 19.9044C182.539 19.8685 182.467 19.8374 182.393 19.8112C182.336 19.79 182.276 19.778 182.216 19.7755C182.044 19.7755 181.927 19.8634 181.862 20.0407C181.782 20.2854 181.726 20.5371 181.694 20.7924H181.212L181.211 13.5274Z" fill="black"/>
<path d="M190.197 19.6323C190.671 19.6126 191.011 19.5116 191.218 19.3293C191.555 19.0262 191.724 18.4387 191.724 17.5668V3.35288C191.724 2.4901 191.564 1.91146 191.242 1.61696C191.047 1.43663 190.698 1.32752 190.197 1.28963V0.5448H196.044V1.28812C195.521 1.326 195.161 1.43031 194.965 1.60105C194.639 1.89757 194.476 2.48151 194.476 3.35288V17.5683C194.476 18.3902 194.607 18.9395 194.868 19.2164C195.129 19.4932 195.521 19.6318 196.044 19.6323V20.3772H190.197V19.6323Z" fill="black"/>
<path d="M196.873 0.5448H206.939L206.955 6.46254H206.474C206.316 4.34549 205.864 2.91316 205.118 2.16555C204.699 1.75436 204.073 1.52932 203.24 1.49043V16.9478C203.24 18.0283 203.348 18.7453 203.563 19.0989C203.778 19.4525 204.226 19.6293 204.906 19.6293V20.3741H198.945V19.6323C199.6 19.6323 200.034 19.453 200.247 19.0944C200.461 18.7357 200.569 18.0209 200.57 16.95V1.4927C199.754 1.53109 199.128 1.75613 198.692 2.16782C197.894 2.93311 197.443 4.36468 197.339 6.46254H196.857L196.873 0.5448Z" fill="black"/>
<path d="M206.656 19.6324C207.059 19.5849 207.383 19.2647 207.628 18.6716C207.786 18.2998 208.012 17.4785 208.308 16.2076L212.023 0.144043H212.488L216.22 15.5635C216.639 17.2926 216.952 18.4079 217.159 18.9096C217.366 19.4112 217.66 19.6524 218.041 19.6332V20.378H212.627V19.6324C213.171 19.5935 213.529 19.5122 213.701 19.3884C213.873 19.2647 213.958 18.9495 213.958 18.4428C213.944 18.091 213.9 17.741 213.828 17.3964C213.773 17.1201 213.699 16.7857 213.606 16.3932L213.181 14.6164H209.427C209.179 15.7832 209.02 16.5435 208.951 16.8971C208.804 17.6518 208.73 18.2011 208.73 18.5451C208.73 18.9659 208.891 19.2717 209.211 19.4627C209.402 19.5683 209.688 19.6256 210.069 19.6347V20.3795H206.656V19.6324ZM212.934 13.4555L211.322 6.6634H211.182L209.671 13.4555H212.934Z" fill="black"/>
<path d="M219.018 13.5274H219.5C219.766 15.7203 220.195 17.3145 220.789 18.3101C221.382 19.3058 222.062 19.8038 222.828 19.8043C223.574 19.8043 224.103 19.4624 224.415 18.7784C224.728 18.1023 224.889 17.3657 224.887 16.6204C224.887 15.741 224.723 15.0239 224.395 14.4693C224.178 14.1061 223.738 13.6328 223.076 13.0493L222.011 12.1029C220.953 11.1664 220.207 10.239 219.773 9.32062C219.339 8.40227 219.122 7.26949 219.122 5.92228C219.111 4.53627 219.406 3.16499 219.985 1.9064C220.56 0.663756 221.442 0.0424319 222.629 0.0424319C223.248 0.0451885 223.855 0.213647 224.387 0.530399C224.952 0.855205 225.275 1.01761 225.355 1.01761C225.537 1.01761 225.662 0.924409 225.733 0.738012C225.815 0.498686 225.872 0.251314 225.903 0L226.401 0V6.39131H225.935C225.717 4.91073 225.332 3.63525 224.781 2.56486C224.231 1.49446 223.562 0.959517 222.775 0.960022C222.221 0.960022 221.783 1.23027 221.462 1.77077C221.14 2.31128 220.979 2.96796 220.979 3.74083C220.979 4.66827 221.13 5.36132 221.432 5.81999C221.728 6.28876 222.392 6.97727 223.423 7.88551L224.658 8.97511C225.185 9.43539 225.631 9.98308 225.974 10.5943C226.586 11.7021 226.892 13.0483 226.892 14.6329C226.898 16.0875 226.562 17.523 225.91 18.8223C225.255 20.1357 224.204 20.7924 222.757 20.7924C222.414 20.7908 222.074 20.7353 221.749 20.628C221.39 20.5086 221.05 20.3373 220.741 20.1195L220.42 19.9044C220.35 19.8686 220.277 19.8375 220.203 19.8112C220.146 19.7901 220.087 19.7781 220.026 19.7755C219.946 19.7731 219.867 19.798 219.803 19.8462C219.739 19.8943 219.693 19.9629 219.673 20.0407C219.593 20.2854 219.536 20.5371 219.504 20.7924H219.022L219.018 13.5274Z" fill="black"/>
<path d="M101.609 60.7307C102.331 60.6438 102.91 60.0614 103.347 58.9834C103.63 58.305 104.034 56.8098 104.561 54.4977L111.217 25.2644H112.049L118.735 53.3248C119.486 56.4713 120.047 58.501 120.417 59.4138C120.787 60.3266 121.314 60.7655 121.997 60.7307V62.087H112.304V60.7307C113.279 60.6615 113.92 60.5137 114.228 60.2874C114.536 60.0611 114.69 59.4873 114.689 58.5659C114.689 58.1491 114.611 57.5147 114.455 56.6625C114.354 56.1574 114.222 55.5489 114.059 54.8372L113.297 51.6002H106.572C106.133 53.7218 105.85 55.1039 105.723 55.7464C105.459 57.1199 105.328 58.1196 105.328 58.7455C105.328 59.5107 105.616 60.0664 106.191 60.4124C106.532 60.6039 107.044 60.7082 107.727 60.7254V62.0817H101.612L101.609 60.7307ZM112.858 49.4908L109.975 37.1279H109.724L107.02 49.4885L112.858 49.4908Z" fill="black"/>
<path d="M123.75 60.7307C124.891 60.713 125.633 60.3523 125.974 59.6487C126.316 58.945 126.486 57.8888 126.486 56.4799V31.1064C126.486 29.6561 126.291 28.7022 125.901 28.2445C125.511 27.7869 124.819 27.4888 123.823 27.3504V25.9949H131.373L137.266 50.7168H137.514L143.376 25.9949H150.932V27.3535C149.917 27.4924 149.224 27.8255 148.854 28.3529C148.484 28.8802 148.298 30.1726 148.298 32.2301V55.8541C148.298 57.8191 148.483 59.1057 148.854 59.7138C149.225 60.322 149.917 60.661 150.932 60.7307V62.087H140.984V60.7307C141.872 60.6802 142.541 60.415 142.989 59.9351C143.437 59.4552 143.661 58.4078 143.662 56.7929V30.6874H143.443L136.098 62.087H135.294L127.876 31.3148H127.744V55.4646C127.744 57.2467 127.93 58.5482 128.301 59.3691C128.671 60.1899 129.491 60.6446 130.758 60.733V62.0893H123.75V60.7307Z" fill="black"/>
<path d="M152.729 60.7307C153.578 60.6958 154.187 60.5132 154.558 60.1829C155.162 59.6272 155.464 58.5581 155.464 56.9755V31.1064C155.464 29.5349 155.176 28.4817 154.601 27.9467C154.248 27.6189 153.624 27.4201 152.729 27.3504V25.9949H163.204V27.3535C162.267 27.4232 161.623 27.6131 161.273 27.9233C160.688 28.4592 160.395 29.52 160.395 31.1056V56.9755C160.395 58.4712 160.629 59.4709 161.097 59.9745C161.565 60.4781 162.267 60.7307 163.204 60.7322V62.0885H152.729V60.7307Z" fill="black"/>
<path d="M165.283 60.7307C166.097 60.6802 166.676 60.489 167.021 60.1571C167.6 59.6014 167.889 58.5406 167.889 56.9747V31.1064C167.889 29.5698 167.624 28.5342 167.095 27.9998C166.771 27.6714 166.168 27.4555 165.285 27.3519V25.9949H175.424V27.3535C174.39 27.5095 173.693 27.8556 173.332 28.3915C172.971 28.9275 172.79 30.206 172.789 32.2271V43.6753L179.236 32.0346C179.684 31.237 179.974 30.6689 180.106 30.3305C180.247 29.9341 180.314 29.5148 180.304 29.0939C180.304 28.4175 180.131 27.9839 179.784 27.7929C179.438 27.602 178.768 27.4555 177.776 27.3535V25.9949H186.452V27.3535C184.901 27.5803 183.617 28.3632 182.598 29.7024C181.58 31.0415 179.651 34.2997 176.81 39.4768L185.952 59.6426C186.147 60.076 186.34 60.3493 186.53 60.4625C186.721 60.5756 187.016 60.6665 187.416 60.7352V62.0915H177.368V60.7307C178.275 60.713 178.894 60.6435 179.227 60.5223C179.559 60.4011 179.725 60.098 179.724 59.6131C179.711 59.3157 179.657 59.0216 179.563 58.7394C179.402 58.2459 179.211 57.7626 178.992 57.2922L173.545 45.1597L172.789 46.5183V56.9747C172.789 58.522 173.079 59.5737 173.657 60.1298C173.991 60.4607 174.571 60.6607 175.395 60.7299V62.0862H165.286L165.283 60.7307Z" fill="black"/>
<path d="M207.62 30.4017C209.68 33.966 210.71 38.557 210.71 44.1747C210.71 49.7924 209.68 54.3808 207.62 57.94C205.611 61.4179 203.1 63.1566 200.086 63.1561C196.887 63.1561 194.278 61.2525 192.259 57.4453C190.377 53.8638 189.436 49.5347 189.436 44.4581C189.436 38.8601 190.42 34.2615 192.39 30.6624C194.384 27.0117 196.95 25.1864 200.089 25.1864C203.113 25.1864 205.623 26.9248 207.62 30.4017ZM204.712 54.2371C205.16 51.6649 205.385 48.3095 205.386 44.1709C205.386 38.4855 204.909 34.2001 203.957 31.3148C203.004 28.4294 201.713 26.9865 200.082 26.986C197.815 26.986 196.262 29.3937 195.423 34.2092C194.983 36.7648 194.764 40.0853 194.764 44.1709C194.764 48.3262 194.988 51.6816 195.437 54.2371C196.268 58.9854 197.816 61.3596 200.082 61.3596C202.328 61.3576 203.871 58.9834 204.712 54.2371Z" fill="black"/>
<path d="M212.816 60.7307C213.957 60.713 214.698 60.3523 215.04 59.6487C215.381 58.945 215.552 57.8888 215.552 56.4799V31.1064C215.552 29.6561 215.357 28.7022 214.967 28.2445C214.576 27.7869 213.884 27.4898 212.89 27.3535V25.9949H220.439L226.332 50.7168H226.581L232.443 25.9949H239.998V27.3535C238.984 27.4924 238.291 27.8255 237.92 28.3529C237.55 28.8802 237.364 30.1726 237.364 32.2301V55.8541C237.364 57.8191 237.55 59.1057 237.92 59.7138C238.291 60.322 238.984 60.661 239.998 60.7307V62.087H230.051V60.7307C230.939 60.6802 231.607 60.415 232.055 59.9351C232.503 59.4552 232.728 58.4078 232.728 56.7929V30.6874H232.509L225.164 62.087H224.36L216.942 31.3148H216.81V55.4646C216.81 57.2467 216.995 58.5482 217.366 59.3691C217.737 60.1899 218.556 60.6446 219.824 60.733V62.0893H212.816V60.7307Z" fill="black"/>
<path d="M120.459 68.1184V68.8405C119.913 68.8961 119.563 68.9701 119.408 69.0625C119.254 69.155 119.176 69.3492 119.176 69.6452C119.177 69.7871 119.191 69.9287 119.219 70.068C119.246 70.2195 119.312 70.4948 119.416 70.8939L121.506 77.7209H121.527L123.224 72.7245C123.333 72.4215 123.446 72.0469 123.564 71.6009C123.744 70.9255 123.834 70.4259 123.835 70.1021C123.835 69.603 123.724 69.2701 123.503 69.1034C123.351 68.9918 123.022 68.9039 122.514 68.8398V68.1184H125.989V68.8405C125.773 68.905 125.569 69.0032 125.385 69.1315C125.194 69.3073 125.034 69.5755 124.906 69.9362L121.883 78.7749V84.0031C121.883 85.0856 121.986 85.7817 122.191 86.0914C122.396 86.401 122.78 86.57 123.344 86.5983V87.3196H117.86V86.5983C118.447 86.57 118.837 86.3896 119.031 86.0573C119.225 85.7249 119.322 85.0402 119.321 84.0031V79.8266L116.433 70.3915C116.243 69.7717 116.008 69.3368 115.73 69.0868C115.575 68.943 115.377 68.8552 115.166 68.8375V68.1184H120.459Z" fill="black"/>
<path d="M136.479 70.4627C137.566 72.359 138.109 74.8011 138.11 77.7891C138.11 80.777 137.567 83.2191 136.479 85.1154C135.418 86.9657 134.091 87.8909 132.5 87.8909C130.811 87.8909 129.433 86.8778 128.366 84.8517C127.372 82.9468 126.875 80.6436 126.875 77.9421C126.875 74.9618 127.395 72.5149 128.436 70.6014C129.487 68.6596 130.841 67.6885 132.5 67.688C134.097 67.688 135.424 68.6129 136.479 70.4627ZM134.938 83.1453C135.175 81.7764 135.294 79.991 135.294 77.7891C135.294 74.7643 135.042 72.4841 134.538 70.9484C134.035 69.4128 133.354 68.6462 132.496 68.6488C131.299 68.6488 130.479 69.9301 130.035 72.4926C129.804 73.852 129.688 75.62 129.687 77.7966C129.687 80.0076 129.806 81.7931 130.044 83.1529C130.482 85.6786 131.299 86.9415 132.496 86.9415C133.682 86.9359 134.496 85.6705 134.938 83.1453Z" fill="black"/>
<path d="M140.776 70.7401C141.827 68.7518 143.169 67.7575 144.802 67.757C145.457 67.757 146.108 67.9767 146.756 68.4162C147.405 68.8556 147.809 69.0754 147.97 69.0754C148.14 69.0754 148.272 68.9693 148.379 68.7564C148.486 68.5435 148.567 68.2199 148.634 67.785H149.074V74.4316H148.672C148.292 72.988 147.903 71.8501 147.506 71.0182C146.764 69.4825 145.924 68.7147 144.987 68.7147C143.967 68.7147 143.222 69.5103 142.754 71.1015C142.285 72.6927 142.05 74.9312 142.051 77.8171C142.051 80.1852 142.268 82.2967 142.704 84.1516C143.139 86.0065 143.98 86.9337 145.226 86.9332C145.901 86.9332 146.354 86.6788 146.586 86.1701C146.72 85.8837 146.787 85.449 146.787 84.8661V81.8686C146.787 81.0099 146.64 80.4456 146.347 80.1759C146.156 80.0092 145.77 79.9167 145.188 79.8985V79.181H150.612V79.9023C150.066 79.9392 149.704 80.1357 149.526 80.4918C149.348 80.848 149.259 81.5163 149.26 82.4967V86.1186C148.908 86.5076 148.341 86.896 147.56 87.284C146.741 87.6806 145.842 87.8801 144.932 87.8666C143.176 87.8666 141.773 86.8723 140.722 84.8835C139.743 83.0241 139.253 80.6929 139.254 77.8898C139.254 75.057 139.761 72.6738 140.776 70.7401Z" fill="black"/>
<path d="M156.507 68.1184V68.8405C155.962 68.8961 155.612 68.9701 155.457 69.0625C155.303 69.155 155.225 69.3492 155.225 69.6452C155.226 69.7871 155.24 69.9287 155.268 70.068C155.295 70.2195 155.361 70.4948 155.465 70.8939L157.555 77.7209H157.576L159.274 72.7253C159.382 72.4222 159.496 72.0477 159.614 71.6016C159.794 70.9262 159.884 70.4267 159.885 70.1029C159.885 69.6038 159.774 69.2709 159.552 69.1042C159.401 68.9926 159.071 68.9047 158.563 68.8405V68.1184H162.039V68.8405C161.823 68.905 161.619 69.0032 161.434 69.1315C161.244 69.3073 161.084 69.5755 160.955 69.9362L157.933 78.7749V84.0031C157.933 85.0856 158.036 85.7817 158.241 86.0914C158.446 86.401 158.83 86.57 159.393 86.5983V87.3196H153.908V86.5983C154.495 86.57 154.885 86.3896 155.079 86.0573C155.272 85.7249 155.368 85.0402 155.368 84.0031V79.8266L152.482 70.3915C152.291 69.7717 152.057 69.3368 151.779 69.0868C151.624 68.943 151.425 68.8552 151.215 68.8375V68.1184H156.507Z" fill="black"/>
<path d="M161.242 86.6006C161.623 86.5541 161.929 86.2442 162.162 85.6709C162.313 85.3102 162.526 84.5146 162.803 83.2841L166.318 67.7297H166.759L170.29 82.6567C170.686 84.3312 170.983 85.4112 171.179 85.8967C171.375 86.3821 171.652 86.6157 172.01 86.5975V87.3189H166.887V86.5975C167.402 86.5604 167.741 86.4816 167.903 86.3611C168.065 86.2407 168.147 85.9361 168.147 85.4458C168.133 85.1053 168.092 84.7665 168.023 84.4328C167.973 84.1645 167.903 83.8407 167.814 83.4614L167.412 81.7406H163.861C163.629 82.8696 163.479 83.6051 163.412 83.9471C163.273 84.678 163.203 85.2099 163.203 85.5428C163.203 85.9494 163.355 86.2455 163.657 86.4308C163.837 86.5319 164.107 86.5874 164.468 86.5975V87.3189H161.238L161.242 86.6006ZM167.182 80.6207L165.66 74.0438H165.527L164.099 80.6207H167.182Z" fill="black"/>
<path d="M172.782 86.6005C173.211 86.5722 173.517 86.4712 173.698 86.2975C174.004 86.0009 174.157 85.4367 174.157 84.6047V70.8378C174.157 70.0205 174.017 69.4692 173.737 69.1838C173.566 69.0095 173.247 68.8948 172.782 68.8398V68.1184H178.136V68.8405C177.59 68.9228 177.222 69.1067 177.031 69.3921C176.84 69.6775 176.745 70.3595 176.745 71.4379V77.5292L180.149 71.3349C180.32 71.0412 180.474 70.7376 180.609 70.4256C180.684 70.2148 180.72 69.9918 180.714 69.7679C180.714 69.4083 180.622 69.1774 180.439 69.0754C180.256 68.9734 179.903 68.8951 179.381 68.8405V68.1184H183.963V68.8405C183.144 68.9602 182.466 69.3765 181.927 70.0892C181.389 70.802 180.37 72.5356 178.87 75.2902L183.7 86.0194C183.803 86.2467 183.904 86.3982 184.002 86.4558C184.148 86.5307 184.307 86.5799 184.47 86.6013V87.3226H179.161V86.6013C179.64 86.5922 179.968 86.5551 180.143 86.4899C180.319 86.4247 180.407 86.2628 180.406 86.0042C180.4 85.8462 180.371 85.6898 180.321 85.5397C180.236 85.277 180.135 85.0197 180.019 84.7691L177.144 78.3157L176.743 79.0386V84.6032C176.743 85.4261 176.896 85.9858 177.201 86.2823C177.377 86.4581 177.683 86.5644 178.118 86.6013V87.3226H172.779L172.782 86.6005Z" fill="black"/>
<path d="M184.98 86.6006C185.362 86.5541 185.669 86.2442 185.9 85.6709C186.051 85.3102 186.265 84.5146 186.541 83.2841L190.057 67.7297H190.497L194.029 82.6567C194.425 84.3312 194.722 85.4112 194.917 85.8967C195.113 86.3821 195.39 86.6157 195.748 86.5975V87.3189H190.626V86.5975C191.141 86.5602 191.48 86.4814 191.642 86.3611C191.804 86.2409 191.885 85.9358 191.885 85.4458C191.871 85.1053 191.83 84.7665 191.761 84.4328C191.711 84.1645 191.641 83.8407 191.553 83.4614L191.15 81.7406H187.599C187.366 82.8696 187.217 83.6051 187.15 83.9471C187.011 84.678 186.942 85.2099 186.942 85.5428C186.942 85.9494 187.093 86.2455 187.395 86.4308C187.575 86.5319 187.846 86.5874 188.206 86.5975V87.3189H184.977L184.98 86.6006ZM190.923 80.6207L189.4 74.0438H189.267L187.839 80.6207H190.923Z" fill="black"/>
<path d="M196.375 86.6005C196.911 86.5541 197.277 86.3737 197.472 86.0595C197.667 85.7453 197.765 85.0606 197.766 84.0054V71.4342C197.766 70.339 197.65 69.626 197.418 69.2951C197.263 69.0739 196.915 68.9223 196.375 68.8405V68.1184H201.467C202.525 68.1184 203.381 68.3174 204.036 68.7155C205.303 69.5202 205.936 70.9679 205.937 73.0587C205.937 74.6039 205.605 75.8203 204.941 76.7078C204.434 77.3736 203.897 77.7992 203.33 77.9846L206.689 86.0762C206.777 86.298 206.87 86.4437 206.968 86.5134C207.076 86.5863 207.201 86.6315 207.331 86.6452V87.3272H204.029L200.338 78.4468H200.331V84.0107C200.331 85.0098 200.424 85.6829 200.609 86.03C200.794 86.377 201.165 86.569 201.722 86.6058V87.3272H196.375V86.6005ZM202.555 76.7419C203.001 76.2474 203.224 75.1025 203.224 73.3072C203.224 72.207 203.139 71.3377 202.969 70.6992C202.676 69.6167 202.14 69.0754 201.361 69.0754C200.939 69.0754 200.662 69.1701 200.53 69.3595C200.398 69.549 200.333 69.8611 200.333 70.2961V77.5254C201.368 77.4981 202.108 77.237 202.555 76.7419Z" fill="black"/>
<path d="M207.417 68.1184H216.945L216.96 73.849H216.507C216.356 71.7996 215.928 70.4128 215.223 69.6884C214.826 69.2898 214.234 69.0719 213.446 69.0345V84.0046C213.446 85.0503 213.546 85.7446 213.748 86.0876C213.949 86.4306 214.373 86.6018 215.019 86.6013V87.3226H209.379V86.6013C209.997 86.6013 210.407 86.4275 210.611 86.08C210.814 85.7325 210.915 85.0407 210.913 84.0046V69.0337C210.14 69.0711 209.548 69.2891 209.136 69.6876C208.381 70.4302 207.952 71.8171 207.852 73.8482H207.398L207.417 68.1184Z" fill="black"/>
<path d="M216.674 86.6006C217.056 86.5541 217.362 86.2442 217.594 85.6709C217.745 85.3102 217.959 84.5146 218.235 83.2841L221.751 67.7297H222.191L225.723 82.6567C226.12 84.3312 226.416 85.4112 226.611 85.8967C226.807 86.3821 227.084 86.6157 227.442 86.5975V87.3189H222.319V86.5975C222.834 86.5602 223.173 86.4814 223.335 86.3611C223.497 86.2409 223.578 85.9358 223.578 85.4458C223.565 85.1054 223.524 84.7666 223.455 84.4328C223.405 84.1645 223.335 83.8407 223.246 83.4614L222.843 81.7406H219.292C219.06 82.8696 218.911 83.6051 218.844 83.9471C218.705 84.678 218.635 85.2099 218.635 85.5428C218.635 85.9494 218.786 86.2455 219.088 86.4308C219.269 86.5319 219.54 86.5874 219.9 86.5975V87.3189H216.67L216.674 86.6006ZM222.615 80.6199L221.093 74.043H220.96L219.532 80.6199H222.615Z" fill="black"/>
</g>
<defs>
<clipPath id="clip0_105_18">
<rect width="240" height="88.0576" fill="white"/>
</clipPath>
</defs>
</svg>
