<svg width="240" height="88" viewBox="0 0 240 88" fill="none" xmlns="http://www.w3.org/2000/svg">
<g clip-path="url(#clip0_105_291)">
<path d="M46.052 66.3083H12.0781C11.569 66.3083 11.0729 66.1477 10.6605 65.8492C10.2481 65.5507 9.94037 65.1297 9.78128 64.6461L7.94912 59.0696L4.2848 47.9172L3.50888 48.4831L0.992962 50.3183C0.581548 50.6183 0.27539 51.0407 0.118148 51.525C-0.0390935 52.0094 -0.0393892 52.531 0.117303 53.0155L4.64141 66.9837L7.27443 75.111L8.06321 77.546C8.22063 78.0321 8.52799 78.4558 8.94117 78.7563C9.35436 79.0568 9.85212 79.2187 10.363 79.2188H42.5418C43.1327 79.2188 43.7031 79.0025 44.1453 78.6106C44.5876 78.2188 44.871 77.6785 44.9421 77.092L46.1313 67.2799C46.1714 66.954 46.1444 66.6234 46.052 66.3083Z" fill="#FFCC00"/>
<path d="M4.28478 47.9173L4.2832 47.9134" stroke="#FFCC00" stroke-miterlimit="10"/>
<path d="M13.0885 23.9964C12.9291 23.5107 12.9278 22.9869 13.0847 22.5004C13.2416 22.0139 13.5487 21.5896 13.9619 21.2886L28.1923 10.9151L24.7924 8.44984C24.3792 8.14936 23.8814 7.9875 23.3705 7.9875C22.8596 7.9875 22.3618 8.14936 21.9486 8.44984L3.20694 22.1166L1.16701 23.6058C0.753584 23.9066 0.446181 24.3308 0.28898 24.8173C0.131779 25.3039 0.132873 25.8277 0.292106 26.3136L10.349 56.9375C10.532 57.4953 10.9118 57.9674 11.4175 58.2658C11.9231 58.5641 12.52 58.6683 13.0968 58.5588L22.8076 56.7146C23.1322 56.6538 23.4407 56.527 23.7143 56.3421L20.8954 47.76L13.0885 23.9964Z" fill="#FFCC00"/>
<path d="M71.0444 15.5571L52.4176 1.95152L50.3829 0.465389C49.969 0.163168 49.4697 0.000301361 48.9572 0.000301361C48.4447 0.000301361 47.9455 0.163168 47.5315 0.465389L21.4801 19.4806C21.0057 19.827 20.6737 20.3343 20.546 20.9077C20.4184 21.4811 20.5039 22.0814 20.7866 22.5964L25.9997 32.1002L33.5988 26.5667L49.1182 15.2617L52.5853 12.7375L53.6612 11.9532C54.0748 11.6517 54.5735 11.4892 55.0853 11.4892C55.5972 11.4892 56.0959 11.6517 56.5095 11.9532L70.6379 22.2647L71.9223 18.2445C72.0765 17.7611 72.0747 17.2414 71.9171 16.7591C71.7595 16.2768 71.4542 15.8563 71.0444 15.5571Z" fill="#FFCC00"/>
<path d="M86.676 42.6919C86.6772 42.6928 86.6787 42.6934 86.6803 42.6936C86.6818 42.6939 86.6834 42.6937 86.6849 42.6932C86.6864 42.6927 86.6877 42.6918 86.6888 42.6907C86.6899 42.6895 86.6906 42.6881 86.6911 42.6866L87.4617 40.2538C87.6146 39.7711 87.612 39.2525 87.4544 38.7712C87.2967 38.29 86.9919 37.8704 86.583 37.5717L60.5128 18.5324C60.0357 18.1845 59.4479 18.0232 58.8602 18.0789C58.2724 18.1345 57.7254 18.4033 57.3222 18.8346L49.918 26.7435L57.363 32.1833L77.621 46.9849C78.0304 47.2833 78.3357 47.7029 78.4938 48.1843C78.6519 48.6657 78.6547 49.1846 78.5019 49.6677L73.1868 66.306H77.4442C77.9579 66.3061 78.4582 66.1425 78.8727 65.839C79.2872 65.5355 79.5942 65.1079 79.7493 64.6182L86.6888 42.7002" fill="#FFCC00"/>
<path d="M72.2704 52.6067L62.4372 47.9376L59.6417 56.6828L52.0245 80.5326C51.8679 81.0226 51.5592 81.4499 51.1431 81.7523C50.7271 82.0548 50.2254 82.2167 49.711 82.2144L32.1465 82.1389L33.4974 86.1583C33.6588 86.6383 33.9669 87.0555 34.3782 87.3511C34.7895 87.6466 35.2832 87.8055 35.7896 87.8054H61.4588C61.9715 87.8054 62.4711 87.6425 62.8852 87.34C63.2993 87.0376 63.6065 86.6113 63.7624 86.1228L73.5359 55.5238C73.7133 54.9668 73.6829 54.3643 73.4502 53.828C73.2175 53.2916 72.7984 52.8578 72.2704 52.6067Z" fill="#FFCC00"/>
<path d="M41.6616 31.2472C33.4641 31.2472 26.8223 37.8928 26.8223 46.0873C26.8223 54.2818 33.4709 60.9312 41.6654 60.9312C49.8599 60.9312 56.5093 54.2825 56.5093 46.0873C56.5093 37.8921 49.8599 31.2472 41.6616 31.2472ZM41.6616 49.9956C40.8893 49.9956 40.1344 49.7667 39.4922 49.3377C38.8501 48.9087 38.3495 48.2989 38.0539 47.5855C37.7582 46.8721 37.6807 46.087 37.8311 45.3295C37.9816 44.572 38.3532 43.8762 38.8991 43.3299C39.4449 42.7836 40.1405 42.4114 40.8979 42.2604C41.6552 42.1094 42.4404 42.1863 43.154 42.4814C43.8677 42.7765 44.4778 43.2766 44.9073 43.9184C45.3368 44.5602 45.5664 45.315 45.567 46.0873C45.5674 46.6004 45.4668 47.1086 45.2707 47.5828C45.0747 48.057 44.7871 48.488 44.4244 48.8509C44.0617 49.2139 43.631 49.5019 43.1569 49.6983C42.6829 49.8947 42.1748 49.9957 41.6616 49.9956Z" fill="#FFCC00"/>
<path d="M120.576 0.543226V1.2844C119.929 1.32218 119.496 1.49847 119.278 1.81327C119.061 2.12807 118.952 2.84356 118.952 3.95973V13.7635C118.952 15.2529 119.053 16.4028 119.254 17.2132C119.619 18.7213 120.318 19.4753 121.353 19.4753C122.637 19.4753 123.506 18.6412 123.957 16.973C124.209 16.0573 124.335 14.7746 124.335 13.1251V4.17203C124.335 3.12487 124.225 2.40334 124.004 2.00744C123.784 1.61154 123.351 1.37053 122.708 1.2844V0.543226H126.382V1.2844C125.848 1.46573 125.496 1.68735 125.324 1.94927C125.152 2.21118 125.066 2.81359 125.066 3.75649V13.1167C125.066 15.6034 124.724 17.523 124.038 18.8754C123.353 20.2278 122.276 20.904 120.809 20.904C118.887 20.904 117.572 19.8984 116.865 17.8872C116.49 16.8198 116.302 15.442 116.302 13.7537V3.95822C116.302 2.85917 116.218 2.16736 116.052 1.88278C115.886 1.5982 115.511 1.39874 114.926 1.2844V0.543226H120.576Z" fill="#FFCC00"/>
<path d="M127.002 19.5758C127.622 19.547 128.022 19.3398 128.202 18.954C128.381 18.5681 128.471 17.999 128.471 17.2465V3.38627C127.959 2.38797 127.643 1.79991 127.523 1.62211C127.41 1.45007 127.234 1.3293 127.033 1.2859V0.543214H130.576L136.325 12.7684H136.407V4.17202C136.407 3.18177 136.304 2.4746 136.098 2.0505C135.892 1.62639 135.48 1.37102 134.863 1.28439V0.543214H138.457V1.28439C137.934 1.43549 137.584 1.63924 137.407 1.89561C137.23 2.15199 137.142 2.72468 137.142 3.61369V20.8617H136.677L129.319 5.21314H129.205V16.6889C129.205 17.5895 129.276 18.2261 129.417 18.5989C129.64 19.2033 130.097 19.5289 130.789 19.5758V20.3184H127.002V19.5758Z" fill="#FFCC00"/>
<path d="M139.08 19.5758C139.554 19.5561 139.894 19.4554 140.101 19.2735C140.438 18.9713 140.607 18.3855 140.607 17.5162V3.34321C140.607 2.48291 140.446 1.90594 140.125 1.61229C139.929 1.43247 139.581 1.32368 139.08 1.2859V0.543214H144.926V1.28439C144.404 1.32216 144.044 1.42618 143.848 1.59642C143.522 1.88957 143.359 2.47132 143.359 3.34169V17.5177C143.359 18.3372 143.489 18.8849 143.751 19.161C144.012 19.437 144.404 19.5752 144.926 19.5758V20.3184H139.08V19.5758Z" fill="#FFCC00"/>
<path d="M151.197 0.543226V1.2572C150.598 1.31462 150.21 1.40302 150.033 1.52239C149.856 1.64177 149.767 1.9402 149.768 2.41769C149.767 2.55873 149.774 2.69971 149.788 2.84004C149.804 2.98243 149.829 3.12356 149.864 3.26238L152.515 14.0884H152.489L154.68 4.17883C154.73 3.95898 154.773 3.73458 154.811 3.50566C154.869 3.20817 154.901 2.90644 154.909 2.60356C154.909 2.0495 154.815 1.70347 154.628 1.56546C154.44 1.42745 154.057 1.3247 153.48 1.2572V0.543226H157.04V1.2572C156.851 1.28678 156.67 1.35786 156.511 1.46535C156.353 1.57285 156.22 1.7141 156.122 1.879C155.917 2.21748 155.72 2.81032 155.53 3.65752L151.716 20.8617H151.275L146.969 3.3334C146.794 2.62824 146.616 2.12077 146.434 1.811C146.344 1.65892 146.221 1.52993 146.072 1.4344C145.924 1.33887 145.755 1.27947 145.58 1.26098V0.543226H151.197Z" fill="#FFCC00"/>
<path d="M157.66 20.3184V19.5758C158.139 19.547 158.479 19.4327 158.681 19.2327C158.991 18.9275 159.146 18.3558 159.146 17.5177V3.34321C159.146 2.49248 158.986 1.92029 158.664 1.62664C158.479 1.44884 158.145 1.33476 157.66 1.28439V0.543214H167.295V6.4439H166.887C166.675 4.5581 166.314 3.26639 165.805 2.56879C165.296 1.87118 164.369 1.52364 163.024 1.52616C162.513 1.52616 162.188 1.61884 162.049 1.80419C161.91 1.98955 161.84 2.35875 161.84 2.9118V9.68436C162.793 9.70401 163.438 9.4018 163.776 8.77773C164.114 8.15366 164.372 7.01382 164.551 5.3582H164.975V15.2458H164.551C164.431 13.5791 164.188 12.405 163.82 11.7235C163.452 11.042 162.792 10.7016 161.84 10.7021V17.7897C161.84 18.4082 161.931 18.8295 162.113 19.0537C162.296 19.2778 162.67 19.3899 163.236 19.3899C164.303 19.3899 165.174 19.0277 165.849 18.3034C166.525 17.5791 167.123 16.2217 167.645 14.2311H168.111L167.431 20.3184H157.66Z" fill="#FFCC00"/>
<path d="M168.819 19.5758C169.385 19.5284 169.771 19.3425 169.978 19.0182C170.184 18.6938 170.288 17.9886 170.288 16.9027V3.95821C170.288 2.83045 170.166 2.09608 169.921 1.75508C169.758 1.52742 169.39 1.37102 168.819 1.2859V0.543214H174.2C175.316 0.543214 176.219 0.747962 176.91 1.15746C178.249 1.98602 178.919 3.47668 178.919 5.62944C178.919 7.22058 178.569 8.47325 177.867 9.38744C177.331 10.0735 176.764 10.5117 176.165 10.7021L179.716 19.0325C179.809 19.2592 179.907 19.4103 180.01 19.4858C180.125 19.5612 180.257 19.6076 180.394 19.6211V20.3215H176.905L173.004 11.1796H172.997V16.9095C172.997 17.9385 173.095 18.6316 173.291 18.9887C173.487 19.3458 173.879 19.5435 174.467 19.5818V20.3245H168.816L168.819 19.5758ZM175.346 9.42371C175.817 8.91398 176.053 7.7351 176.053 5.88707C176.053 4.75378 175.963 3.85823 175.784 3.20041C175.474 2.08626 174.907 1.52918 174.085 1.52918C173.639 1.52918 173.347 1.62664 173.208 1.82157C173.069 2.0165 172.999 2.3381 172.999 2.78638V10.2306C174.093 10.2019 174.876 9.93293 175.346 9.42371Z" fill="#FFCC00"/>
<path d="M181.211 13.4885H181.693C181.959 15.675 182.389 17.2646 182.983 18.2574C183.576 19.2501 184.256 19.7468 185.023 19.7473C185.768 19.7473 186.296 19.4063 186.609 18.7243C186.921 18.05 187.082 17.3156 187.08 16.5725C187.08 15.6956 186.916 14.9806 186.588 14.4276C186.371 14.0654 185.932 13.5935 185.27 13.0117L184.204 12.0681C183.147 11.1342 182.401 10.2095 181.967 9.29377C181.534 8.37807 181.316 7.24855 181.315 5.90522C181.305 4.52315 181.6 3.15582 182.179 1.90091C182.753 0.661844 183.635 0.0423096 184.823 0.0423096C185.442 0.0453503 186.049 0.213303 186.581 0.528871C187.146 0.852741 187.468 1.01468 187.548 1.01468C187.634 1.01764 187.717 0.991707 187.786 0.941093C187.854 0.890479 187.904 0.818159 187.926 0.735886C188.008 0.497193 188.064 0.250535 188.095 0L188.593 0V6.37289H188.126C187.908 4.89659 187.524 3.62478 186.973 2.55747C186.422 1.49016 185.752 0.956752 184.965 0.957256C184.411 0.957256 183.973 1.22673 183.652 1.76567C183.331 2.30462 183.17 2.95941 183.169 3.73005C183.169 4.65482 183.32 5.34587 183.623 5.80322C183.919 6.27064 184.582 6.95717 185.613 7.86279L186.848 8.94925C187.376 9.40821 187.821 9.95431 188.165 10.5638C188.776 11.6684 189.082 13.0107 189.082 14.5908C189.089 16.0412 188.752 17.4726 188.1 18.7681C187.445 20.0777 186.394 20.7325 184.947 20.7325C184.605 20.7309 184.264 20.6756 183.939 20.5685C183.58 20.4495 183.24 20.2787 182.931 20.0616L182.609 19.847C182.539 19.8113 182.467 19.7802 182.393 19.7541C182.336 19.733 182.276 19.721 182.216 19.7186C182.044 19.7186 181.927 19.8062 181.862 19.983C181.782 20.2269 181.726 20.4779 181.694 20.7325H181.212L181.211 13.4885Z" fill="#FFCC00"/>
<path d="M190.193 19.5758C190.667 19.5561 191.007 19.4554 191.214 19.2735C191.551 18.9713 191.72 18.3855 191.72 17.5162V3.34321C191.72 2.48291 191.56 1.90594 191.238 1.61229C191.043 1.43247 190.695 1.32368 190.193 1.2859V0.543214H196.04V1.28439C195.517 1.32216 195.157 1.42618 194.961 1.59642C194.635 1.89209 194.472 2.47435 194.472 3.34321V17.5177C194.472 18.3372 194.603 18.8849 194.864 19.161C195.125 19.437 195.517 19.5752 196.04 19.5758V20.3184H190.193V19.5758Z" fill="#FFCC00"/>
<path d="M196.871 0.543214H206.937L206.954 6.4439H206.472C206.314 4.33295 205.862 2.90475 205.116 2.15929C204.697 1.74929 204.071 1.5249 203.238 1.48611V16.8989C203.238 17.9763 203.346 18.6913 203.561 19.0439C203.776 19.3964 204.224 19.5727 204.904 19.5727V20.3154H198.943V19.5758C199.598 19.5758 200.032 19.3969 200.246 19.0393C200.459 18.6817 200.567 17.969 200.568 16.9012V1.48838C199.752 1.52666 199.126 1.75105 198.69 2.16156C197.892 2.92464 197.441 4.35209 197.337 6.4439H196.855L196.871 0.543214Z" fill="#FFCC00"/>
<path d="M206.656 19.5758C207.059 19.5284 207.383 19.2091 207.628 18.6178C207.786 18.2471 208.012 17.4281 208.308 16.1608L212.023 0.143558H212.488L216.22 15.5186C216.639 17.2427 216.952 18.3548 217.159 18.855C217.366 19.3552 217.66 19.5957 218.041 19.5765V20.3192H212.627V19.5758C213.171 19.537 213.529 19.4559 213.701 19.3325C213.873 19.2091 213.958 18.8948 213.958 18.3896C213.944 18.0388 213.9 17.6898 213.828 17.3462C213.773 17.0707 213.699 16.7373 213.606 16.3459L213.181 14.5742H209.427C209.179 15.7377 209.02 16.4957 208.951 16.8483C208.804 17.6008 208.73 18.1486 208.73 18.4916C208.73 18.9112 208.891 19.2161 209.211 19.4065C209.402 19.5118 209.688 19.569 210.069 19.578V20.3207H206.656V19.5758ZM212.934 13.4167L211.322 6.64413H211.182L209.671 13.4167H212.934Z" fill="#FFCC00"/>
<path d="M219.016 13.4885H219.498C219.764 15.675 220.193 17.2646 220.787 18.2574C221.38 19.2501 222.06 19.7468 222.827 19.7473C223.572 19.7473 224.101 19.4063 224.413 18.7243C224.726 18.0502 224.887 17.3156 224.885 16.5725C224.885 15.6956 224.721 14.9806 224.393 14.4276C224.176 14.0654 223.736 13.5935 223.074 13.0117L222.009 12.0681C220.951 11.1342 220.205 10.2095 219.771 9.29377C219.337 8.37807 219.12 7.24855 219.12 5.90522C219.109 4.5232 219.404 3.15587 219.983 1.90091C220.558 0.661844 221.44 0.0423096 222.627 0.0423096C223.246 0.0450583 223.853 0.213032 224.385 0.528871C224.95 0.852741 225.273 1.01468 225.353 1.01468C225.535 1.01468 225.661 0.921746 225.731 0.735886C225.813 0.497249 225.87 0.25059 225.901 0L226.399 0V6.37289H225.933C225.715 4.89659 225.33 3.62478 224.78 2.55747C224.229 1.49016 223.56 0.956752 222.773 0.957256C222.219 0.957256 221.781 1.22673 221.46 1.76567C221.138 2.30462 220.977 2.95941 220.977 3.73005C220.977 4.65482 221.128 5.34587 221.43 5.80322C221.726 6.27064 222.39 6.95717 223.421 7.86279L224.656 8.94925C225.183 9.40821 225.629 9.95432 225.972 10.5638C226.584 11.6684 226.89 13.0107 226.89 14.5908C226.896 16.0412 226.56 17.4725 225.908 18.7681C225.253 20.0777 224.202 20.7325 222.755 20.7325C222.412 20.7309 222.072 20.6756 221.747 20.5685C221.388 20.4495 221.048 20.2787 220.739 20.0616L220.418 19.847C220.348 19.8114 220.275 19.7804 220.201 19.7541C220.144 19.7331 220.085 19.7211 220.024 19.7186C219.944 19.7161 219.865 19.7409 219.801 19.789C219.737 19.837 219.691 19.9054 219.671 19.983C219.591 20.2269 219.534 20.4779 219.502 20.7325H219.02L219.016 13.4885Z" fill="#FFCC00"/>
<path d="M101.613 60.5557C102.335 60.4691 102.914 59.8883 103.351 58.8134C103.634 58.137 104.038 56.6461 104.565 54.3407L111.221 25.1916H112.052L118.739 53.1711C119.49 56.3086 120.05 58.3324 120.421 59.2426C120.791 60.1527 121.318 60.5904 122.001 60.5557V61.9081H112.308V60.5557C113.283 60.4867 113.924 60.3394 114.232 60.1137C114.54 59.8881 114.694 59.3159 114.693 58.3971C114.693 57.9816 114.615 57.349 114.459 56.4992C114.358 55.9956 114.226 55.3889 114.063 54.6792L113.301 51.4516H106.576C106.137 53.567 105.854 54.9451 105.727 55.5858C105.463 56.9553 105.331 57.9521 105.332 58.5762C105.332 59.3393 105.62 59.8933 106.195 60.2384C106.536 60.4293 107.048 60.5333 107.731 60.5504V61.9028H101.616L101.613 60.5557ZM112.862 49.3482L109.979 37.0209H109.728L107.024 49.3459L112.862 49.3482Z" fill="#FFCC00"/>
<path d="M123.748 60.5557C124.889 60.538 125.631 60.1784 125.972 59.4768C126.314 58.7751 126.485 57.7219 126.485 56.3171V31.0167C126.485 29.5706 126.289 28.6194 125.899 28.1631C125.509 27.7067 124.816 27.4096 123.821 27.2716V25.9199H131.371L137.264 50.5706H137.512L143.374 25.9199H150.93V27.2746C149.915 27.4131 149.222 27.7453 148.852 28.2711C148.482 28.797 148.296 30.0857 148.296 32.1372V55.6931C148.296 57.6524 148.481 58.9353 148.852 59.5417C149.223 60.1482 149.915 60.4861 150.93 60.5557V61.9081H140.982V60.5557C141.87 60.5053 142.539 60.2408 142.987 59.7623C143.435 59.2838 143.66 58.2395 143.66 56.6292V30.5989H143.441L136.096 61.9081H135.293L127.874 31.2245H127.743V55.3047C127.743 57.0817 127.928 58.3795 128.299 59.198C128.669 60.0165 129.489 60.4698 130.756 60.5579V61.9103H123.748V60.5557Z" fill="#FFCC00"/>
<path d="M152.731 60.5556C153.58 60.5209 154.189 60.3388 154.56 60.0094C155.164 59.4553 155.466 58.3893 155.466 56.8112V31.0167C155.466 29.4498 155.178 28.3996 154.603 27.8662C154.25 27.5393 153.626 27.3411 152.73 27.2716V25.9199H163.206V27.2746C162.269 27.3441 161.625 27.5335 161.275 27.8427C160.689 28.3772 160.397 29.4349 160.397 31.016V56.8112C160.397 58.3027 160.631 59.2994 161.099 59.8016C161.567 60.3038 162.269 60.5556 163.206 60.5572V61.9095H152.731V60.5556Z" fill="#FFCC00"/>
<path d="M165.283 60.5556C166.097 60.5053 166.676 60.3146 167.021 59.9837C167.6 59.4296 167.889 58.3719 167.889 56.8105V31.0167C167.889 29.4845 167.624 28.452 167.095 27.9191C166.771 27.5917 166.168 27.3763 165.285 27.2731V25.9199H175.424V27.2746C174.39 27.4302 173.693 27.7752 173.332 28.3097C172.971 28.8441 172.79 30.1189 172.789 32.1341V43.5494L179.236 31.9422C179.684 31.1469 179.974 30.5805 180.106 30.2431C180.247 29.8478 180.314 29.4297 180.304 29.01C180.304 28.3356 180.131 27.9032 179.784 27.7128C179.438 27.5224 178.768 27.3763 177.776 27.2746V25.9199H186.452V27.2746C184.901 27.5007 183.617 28.2815 182.598 29.6167C181.58 30.952 179.651 34.2008 176.81 39.363L185.952 59.4707C186.147 59.9029 186.34 60.1754 186.53 60.2882C186.721 60.401 187.016 60.4917 187.416 60.5602V61.9126H177.368V60.5556C178.275 60.538 178.894 60.4688 179.227 60.3479C179.559 60.227 179.725 59.9248 179.724 59.4412C179.711 59.1447 179.657 58.8515 179.563 58.5701C179.402 58.078 179.211 57.5961 178.992 57.127L173.545 45.0295L172.789 46.3842V56.8105C172.789 58.3533 173.079 59.4019 173.657 59.9565C173.991 60.2864 174.571 60.4859 175.395 60.5549V61.9073H165.286L165.283 60.5556Z" fill="#FFCC00"/>
<path d="M207.618 30.3141C209.678 33.8681 210.709 38.4459 210.709 44.0474C210.709 49.6489 209.678 54.2241 207.618 57.7731C205.609 61.241 203.098 62.9746 200.084 62.9741C196.885 62.9741 194.276 61.076 192.257 57.2797C190.375 53.7086 189.434 49.392 189.434 44.3299C189.434 38.7481 190.419 34.1628 192.388 30.574C194.382 26.9339 196.948 25.1138 200.087 25.1138C203.111 25.1138 205.621 26.8472 207.618 30.3141ZM204.71 54.0808C205.158 51.516 205.383 48.1703 205.384 44.0436C205.384 38.3746 204.907 34.1016 203.955 31.2245C203.002 28.3475 201.711 26.9087 200.08 26.9082C197.813 26.9082 196.26 29.309 195.421 34.1106C194.981 36.6588 194.762 39.9698 194.762 44.0436C194.762 48.1869 194.986 51.5326 195.436 54.0808C196.266 58.8155 197.814 61.1828 200.08 61.1828C202.326 61.1808 203.869 58.8134 204.71 54.0808Z" fill="#FFCC00"/>
<path d="M212.816 60.5557C213.957 60.538 214.698 60.1784 215.04 59.4768C215.381 58.7751 215.552 57.7219 215.552 56.3171V31.0167C215.552 29.5706 215.357 28.6194 214.967 28.1631C214.576 27.7067 213.884 27.4106 212.89 27.2746V25.9199H220.439L226.332 50.5706H226.581L232.443 25.9199H239.998V27.2746C238.984 27.4131 238.291 27.7453 237.92 28.2711C237.55 28.797 237.364 30.0857 237.364 32.1372V55.6931C237.364 57.6524 237.55 58.9353 237.92 59.5417C238.291 60.1482 238.984 60.4861 239.998 60.5557V61.9081H230.051V60.5557C230.939 60.5053 231.607 60.2408 232.055 59.7623C232.503 59.2838 232.728 58.2395 232.728 56.6292V30.5989H232.509L225.164 61.9081H224.36L216.942 31.2245H216.81V55.3047C216.81 57.0817 216.995 58.3795 217.366 59.198C217.737 60.0165 218.556 60.4698 219.824 60.5579V61.9103H212.816V60.5557Z" fill="#FFCC00"/>
<path d="M120.462 67.9221V68.6421C119.917 68.6975 119.567 68.7713 119.412 68.8635C119.258 68.9557 119.18 69.1493 119.18 69.4445C119.182 69.586 119.196 69.7271 119.223 69.8661C119.25 70.0172 119.316 70.2917 119.42 70.6896L121.51 77.4969H121.531L123.228 72.515C123.337 72.2127 123.45 71.8393 123.568 71.3945C123.748 70.7211 123.838 70.2229 123.839 69.9001C123.839 69.4024 123.728 69.0705 123.506 68.9043C123.355 68.793 123.026 68.7053 122.517 68.6414V67.9221H125.993V68.6421C125.777 68.7064 125.573 68.8043 125.388 68.9322C125.198 69.1075 125.038 69.375 124.909 69.7346L121.887 78.5479V83.761C121.887 84.8404 121.99 85.5345 122.195 85.8432C122.4 86.152 122.784 86.3205 123.348 86.3487V87.068H117.864V86.3487C118.451 86.3205 118.841 86.1407 119.035 85.8092C119.229 85.4778 119.326 84.7951 119.325 83.761V79.5965L116.437 70.1887C116.247 69.5707 116.012 69.137 115.734 68.8877C115.579 68.7443 115.38 68.6568 115.17 68.6391V67.9221H120.462Z" fill="#FFCC00"/>
<path d="M136.477 70.2597C137.564 72.1505 138.108 74.5856 138.108 77.5649C138.108 80.5442 137.564 82.9793 136.477 84.8701C135.416 86.7151 134.089 87.6376 132.498 87.6376C130.809 87.6376 129.431 86.6275 128.364 84.6072C127.37 82.7078 126.873 80.4112 126.873 77.7175C126.873 74.7458 127.393 72.3059 128.434 70.398C129.485 68.4618 130.839 67.4935 132.498 67.493C134.095 67.493 135.422 68.4152 136.477 70.2597ZM134.936 82.9057C135.173 81.5408 135.292 79.7605 135.292 77.5649C135.292 74.5488 135.04 72.2752 134.536 70.744C134.033 69.2128 133.352 68.4484 132.494 68.451C131.297 68.451 130.477 69.7286 130.033 72.2838C129.802 73.6392 129.686 75.4021 129.685 77.5725C129.685 79.7771 129.804 81.5574 130.042 82.9133C130.48 85.4317 131.297 86.691 132.494 86.691C133.68 86.6854 134.494 85.4237 134.936 82.9057Z" fill="#FFCC00"/>
<path d="M140.774 70.5362C141.825 68.5537 143.167 67.5622 144.8 67.5617C145.455 67.5617 146.106 67.7808 146.754 68.219C147.403 68.6572 147.807 68.8763 147.968 68.8763C148.138 68.8763 148.27 68.7706 148.377 68.5583C148.485 68.3459 148.565 68.0233 148.632 67.5897H149.072V74.2172H148.67C148.29 72.7776 147.901 71.6431 147.504 70.8135C146.762 69.2823 145.922 68.5167 144.985 68.5167C143.965 68.5167 143.22 69.31 142.752 70.8966C142.283 72.4832 142.048 74.7153 142.049 77.5929C142.049 79.9542 142.267 82.0596 142.702 83.9091C143.137 85.7586 143.978 86.6832 145.224 86.6827C145.899 86.6827 146.352 86.429 146.584 85.9218C146.718 85.6362 146.785 85.2028 146.785 84.6216V81.6327C146.785 80.7764 146.639 80.2138 146.345 79.9448C146.154 79.7786 145.768 79.6864 145.186 79.6683V78.9528H150.61V79.6721C150.064 79.7089 149.702 79.9048 149.524 80.2599C149.346 80.615 149.257 81.2814 149.258 82.259V85.8705C148.906 86.2583 148.339 86.6456 147.558 87.0325C146.739 87.4279 145.84 87.6269 144.931 87.6135C143.174 87.6135 141.771 86.622 140.72 84.6389C139.741 82.7849 139.251 80.4604 139.252 77.6654C139.252 74.8407 139.759 72.4643 140.774 70.5362Z" fill="#FFCC00"/>
<path d="M156.505 67.9221V68.6421C155.96 68.6975 155.61 68.7713 155.455 68.8635C155.301 68.9557 155.223 69.1493 155.223 69.4445C155.224 69.586 155.238 69.7272 155.266 69.8661C155.293 70.0172 155.359 70.2917 155.463 70.6896L157.553 77.4969H157.574L159.272 72.5157C159.38 72.2135 159.494 71.84 159.612 71.3953C159.792 70.7218 159.882 70.2237 159.883 69.9008C159.883 69.4032 159.772 69.0712 159.55 68.905C159.399 68.7937 159.069 68.7061 158.561 68.6421V67.9221H162.037V68.6421C161.821 68.7064 161.617 68.8043 161.432 68.9322C161.242 69.1075 161.082 69.375 160.953 69.7346L157.931 78.5479V83.761C157.931 84.8404 158.034 85.5345 158.239 85.8432C158.444 86.152 158.828 86.3205 159.391 86.3487V87.068H153.906V86.3487C154.493 86.3205 154.883 86.1407 155.077 85.8092C155.27 85.4778 155.367 84.7951 155.366 83.761V79.5965L152.48 70.1887C152.29 69.5707 152.055 69.137 151.777 68.8877C151.622 68.7443 151.423 68.6568 151.213 68.6391V67.9221H156.505Z" fill="#FFCC00"/>
<path d="M161.244 86.351C161.625 86.3046 161.931 85.9956 162.164 85.4239C162.315 85.0643 162.528 84.271 162.805 83.044L166.32 67.5345H166.761L170.291 82.4184C170.688 84.0882 170.985 85.165 171.181 85.6491C171.377 86.1331 171.654 86.3661 172.012 86.348V87.0672H166.889V86.348C167.404 86.3109 167.743 86.2324 167.905 86.1122C168.066 85.9921 168.149 85.6884 168.149 85.1996C168.135 84.86 168.094 84.5222 168.025 84.1894C167.975 83.922 167.905 83.5991 167.816 83.2208L167.414 81.505H163.863C163.631 82.6308 163.481 83.3641 163.414 83.7051C163.275 84.4339 163.205 84.9643 163.205 85.2963C163.205 85.7017 163.356 85.9969 163.659 86.1817C163.839 86.2825 164.109 86.3379 164.47 86.348V87.0672H161.24L161.244 86.351ZM167.184 80.3883L165.662 73.8303H165.529L164.101 80.3883H167.184Z" fill="#FFCC00"/>
<path d="M172.78 86.351C173.209 86.3228 173.515 86.222 173.696 86.0488C174.002 85.7531 174.155 85.1905 174.155 84.3609V70.6337C174.155 69.8187 174.015 69.2689 173.735 68.9844C173.564 68.8106 173.246 68.6963 172.78 68.6414V67.9221H178.134V68.6421C177.588 68.7242 177.22 68.9076 177.029 69.1921C176.838 69.4767 176.743 70.1567 176.743 71.2321V77.3058L180.148 71.1293C180.319 70.8365 180.472 70.5337 180.608 70.2227C180.682 70.0123 180.718 69.79 180.712 69.5669C180.712 69.2083 180.62 68.9781 180.437 68.8763C180.254 68.7746 179.901 68.6965 179.379 68.6421V67.9221H183.961V68.6421C183.142 68.7615 182.464 69.1765 181.925 69.8872C181.387 70.5979 180.368 72.3266 178.868 75.0732L183.698 85.7715C183.801 85.9981 183.902 86.1492 184 86.2067C184.146 86.2813 184.305 86.3304 184.468 86.3517V87.071H179.159V86.3517C179.638 86.3427 179.966 86.3056 180.141 86.2407C180.317 86.1757 180.405 86.0143 180.404 85.7564C180.398 85.5988 180.369 85.4429 180.319 85.2932C180.234 85.0313 180.133 84.7747 180.017 84.5249L177.142 78.09L176.741 78.8108V84.3594C176.741 85.1799 176.894 85.738 177.199 86.0336C177.375 86.2089 177.681 86.315 178.116 86.3517V87.071H172.777L172.78 86.351Z" fill="#FFCC00"/>
<path d="M184.98 86.351C185.362 86.3046 185.669 85.9956 185.9 85.4239C186.051 85.0643 186.265 84.271 186.541 83.044L190.057 67.5345H190.497L194.029 82.4184C194.425 84.0882 194.722 85.165 194.917 85.6491C195.112 86.1331 195.39 86.3661 195.748 86.3479V87.0672H190.626V86.3479C191.141 86.3107 191.48 86.2321 191.642 86.1122C191.804 85.9923 191.885 85.6881 191.885 85.1995C191.871 84.86 191.83 84.5222 191.761 84.1894C191.711 83.9219 191.641 83.5991 191.553 83.2208L191.15 81.505H187.599C187.366 82.6307 187.217 83.3641 187.15 83.7051C187.011 84.4339 186.942 84.9643 186.942 85.2962C186.942 85.7017 187.093 85.9969 187.395 86.1817C187.575 86.2825 187.846 86.3379 188.206 86.3479V87.0672H184.977L184.98 86.351ZM190.923 80.3883L189.4 73.8303H189.267L187.839 80.3883H190.923Z" fill="#FFCC00"/>
<path d="M196.375 86.351C196.911 86.3046 197.277 86.1248 197.472 85.8115C197.667 85.4982 197.765 84.8155 197.766 83.7633V71.2283C197.766 70.1363 197.65 69.4253 197.418 69.0954C197.263 68.8748 196.915 68.7237 196.375 68.6421V67.9221H201.467C202.525 67.9221 203.381 68.1205 204.036 68.5174C205.303 69.3198 205.936 70.7634 205.937 72.8481C205.937 74.3889 205.605 75.6018 204.941 76.4868C204.434 77.1506 203.897 77.575 203.33 77.7598L206.689 85.8281C206.777 86.0493 206.87 86.1946 206.968 86.2641C207.076 86.3367 207.201 86.3819 207.331 86.3955V87.0755H204.029L200.338 78.2207H200.331V83.7686C200.331 84.7649 200.424 85.436 200.609 85.782C200.794 86.1281 201.165 86.3195 201.722 86.3562V87.0755H196.375V86.351ZM202.555 76.5208C203.001 76.0277 203.224 74.8861 203.224 73.096C203.224 71.9989 203.139 71.1321 202.969 70.4954C202.676 69.416 202.14 68.8763 201.361 68.8763C200.939 68.8763 200.662 68.9708 200.53 69.1596C200.398 69.3485 200.333 69.6598 200.333 70.0935V77.302C201.368 77.2748 202.108 77.0144 202.555 76.5208Z" fill="#FFCC00"/>
<path d="M207.417 67.9221H216.945L216.96 73.6362H216.507C216.356 71.5927 215.928 70.2098 215.223 69.4875C214.826 69.0901 214.234 68.8728 213.446 68.8355V83.7625C213.446 84.8052 213.546 85.4975 213.748 85.8395C213.949 86.1815 214.373 86.3522 215.019 86.3517V87.071H209.379V86.3517C209.997 86.3517 210.407 86.1785 210.611 85.8319C210.814 85.4854 210.915 84.7956 210.913 83.7625V68.8348C210.14 68.872 209.548 69.0894 209.136 69.4868C208.381 70.2272 207.952 71.6101 207.852 73.6354H207.398L207.417 67.9221Z" fill="#FFCC00"/>
<path d="M216.676 86.351C217.058 86.3046 217.364 85.9956 217.596 85.4239C217.747 85.0643 217.961 84.271 218.237 83.044L221.753 67.5345H222.193L225.725 82.4184C226.122 84.0882 226.418 85.165 226.613 85.6491C226.809 86.1331 227.086 86.3661 227.444 86.348V87.0672H222.321V86.348C222.836 86.3107 223.175 86.2321 223.337 86.1122C223.499 85.9924 223.58 85.6881 223.58 85.1996C223.567 84.8601 223.525 84.5223 223.457 84.1894C223.407 83.922 223.337 83.5991 223.248 83.2208L222.845 81.505H219.294C219.062 82.6308 218.913 83.3641 218.846 83.7051C218.707 84.4339 218.637 84.9643 218.637 85.2963C218.637 85.7017 218.788 85.9969 219.09 86.1817C219.271 86.2825 219.542 86.3379 219.902 86.348V87.0672H216.672L216.676 86.351ZM222.617 80.3876L221.095 73.8296H220.962L219.534 80.3876H222.617Z" fill="#FFCC00"/>
</g>
<defs>
<clipPath id="clip0_105_291">
<rect width="240" height="87.8038" fill="white"/>
</clipPath>
</defs>
</svg>
